<svg xmlns="http://www.w3.org/2000/svg" xmlns:xlink="http://www.w3.org/1999/xlink" width="410" zoomAndPan="magnify" viewBox="0 0 307.5 112.499997" height="150" preserveAspectRatio="xMidYMid meet" version="1.0"><defs><g/><clipPath id="id1"><path d="M 87.335938 49 L 164.96875 49 L 164.96875 110.894531 L 87.335938 110.894531 Z M 87.335938 49 " clip-rule="nonzero"/></clipPath><clipPath id="id2"><path d="M 92 2.355469 L 160 2.355469 L 160 108 L 92 108 Z M 92 2.355469 " clip-rule="nonzero"/></clipPath></defs><g clip-path="url(#id1)"><path fill="#ffcc80" d="M 155.867188 103.621094 L 147.714844 95.484375 L 142.277344 100.90625 L 150.433594 109.042969 C 151.933594 110.542969 154.367188 110.542969 155.867188 109.042969 C 157.367188 107.542969 157.367188 105.117188 155.867188 103.621094 Z M 163.554688 57.597656 L 155.398438 49.464844 L 149.964844 54.886719 L 158.117188 63.023438 C 159.621094 64.519531 162.054688 64.519531 163.554688 63.023438 C 165.050781 61.523438 165.054688 59.097656 163.554688 57.597656 Z M 97.285156 103.621094 L 105.4375 95.484375 L 110.871094 100.90625 L 102.71875 109.042969 C 101.214844 110.542969 98.78125 110.542969 97.285156 109.042969 C 95.785156 107.542969 95.78125 105.117188 97.285156 103.621094 Z M 88.957031 57.597656 L 97.109375 49.464844 L 102.542969 54.886719 L 94.390625 63.023438 C 92.890625 64.519531 90.457031 64.519531 88.957031 63.023438 C 87.457031 61.523438 87.453125 59.097656 88.957031 57.597656 Z M 88.957031 57.597656 " fill-opacity="1" fill-rule="nonzero"/></g><path fill="#4dd0e1" d="M 162.152344 15.589844 C 162.152344 10.648438 159.207031 7.921875 153.875 7.921875 C 148.539062 7.921875 144.214844 14.484375 144.214844 19.425781 C 144.214844 21.980469 149.144531 23.261719 151.902344 23.261719 C 157.238281 23.261719 162.152344 20.53125 162.152344 15.589844 Z M 90.410156 15.589844 C 90.410156 10.648438 93.351562 7.921875 98.6875 7.921875 C 104.023438 7.921875 108.34375 14.484375 108.34375 19.425781 C 108.34375 21.980469 103.417969 23.261719 100.65625 23.261719 C 95.324219 23.261719 90.410156 20.53125 90.410156 15.589844 Z M 90.410156 15.589844 " fill-opacity="1" fill-rule="nonzero"/><path fill="#424242" d="M 154.464844 13.035156 C 154.125 13.035156 153.796875 13.097656 153.484375 13.226562 C 153.171875 13.359375 152.894531 13.542969 152.652344 13.78125 C 152.414062 14.023438 152.226562 14.296875 152.097656 14.613281 C 151.96875 14.925781 151.902344 15.25 151.902344 15.589844 C 151.902344 15.929688 151.96875 16.253906 152.097656 16.570312 C 152.226562 16.882812 152.414062 17.160156 152.652344 17.398438 C 152.894531 17.636719 153.171875 17.824219 153.484375 17.953125 C 153.796875 18.082031 154.125 18.148438 154.464844 18.148438 C 154.804688 18.148438 155.132812 18.082031 155.445312 17.953125 C 155.757812 17.824219 156.035156 17.636719 156.277344 17.398438 C 156.515625 17.160156 156.703125 16.882812 156.832031 16.570312 C 156.960938 16.253906 157.027344 15.929688 157.027344 15.589844 C 157.027344 15.25 156.960938 14.925781 156.832031 14.613281 C 156.703125 14.296875 156.515625 14.023438 156.277344 13.78125 C 156.035156 13.542969 155.757812 13.359375 155.445312 13.226562 C 155.132812 13.097656 154.804688 13.035156 154.464844 13.035156 Z M 98.097656 13.035156 C 97.757812 13.035156 97.429688 13.097656 97.113281 13.226562 C 96.800781 13.359375 96.523438 13.542969 96.285156 13.78125 C 96.042969 14.023438 95.859375 14.296875 95.726562 14.613281 C 95.597656 14.925781 95.535156 15.25 95.535156 15.589844 C 95.535156 15.929688 95.597656 16.253906 95.726562 16.570312 C 95.859375 16.882812 96.042969 17.160156 96.285156 17.398438 C 96.523438 17.636719 96.800781 17.824219 97.113281 17.953125 C 97.429688 18.082031 97.757812 18.148438 98.097656 18.148438 C 98.433594 18.148438 98.761719 18.082031 99.078125 17.953125 C 99.390625 17.824219 99.667969 17.636719 99.90625 17.398438 C 100.148438 17.160156 100.332031 16.882812 100.464844 16.570312 C 100.59375 16.253906 100.65625 15.929688 100.65625 15.589844 C 100.65625 15.25 100.59375 14.925781 100.464844 14.613281 C 100.332031 14.296875 100.148438 14.023438 99.90625 13.78125 C 99.667969 13.542969 99.390625 13.359375 99.078125 13.226562 C 98.761719 13.097656 98.433594 13.035156 98.097656 13.035156 Z M 98.097656 13.035156 " fill-opacity="1" fill-rule="nonzero"/><g clip-path="url(#id2)"><path fill="#4dd0e1" d="M 159.589844 82.066406 C 159.589844 94.269531 151.339844 107.632812 125.484375 107.632812 C 104.675781 107.632812 92.972656 94.269531 92.972656 82.066406 C 92.972656 69.28125 95.535156 67.21875 95.535156 56.496094 C 95.535156 44.511719 95.535156 38.601562 95.535156 30.929688 C 95.535156 18.726562 103.414062 2.808594 125.484375 2.808594 C 147.558594 2.808594 157.027344 13.011719 157.027344 28.375 C 157.027344 36.042969 156.421875 42.316406 157.027344 53.941406 C 157.503906 63.046875 159.589844 74.394531 159.589844 82.066406 Z M 159.589844 82.066406 " fill-opacity="1" fill-rule="nonzero"/></g><path fill="#f5f5f5" d="M 139.089844 10.476562 C 138.417969 10.476562 137.753906 10.542969 137.09375 10.671875 C 136.433594 10.804688 135.792969 11 135.167969 11.253906 C 134.546875 11.511719 133.957031 11.828125 133.398438 12.199219 C 132.839844 12.574219 132.320312 12.996094 131.84375 13.472656 C 131.367188 13.945312 130.945312 14.464844 130.570312 15.023438 C 130.195312 15.582031 129.878906 16.167969 129.621094 16.789062 C 129.367188 17.410156 129.171875 18.050781 129.039062 18.707031 C 128.910156 19.367188 128.84375 20.03125 128.84375 20.703125 C 128.84375 21.375 128.910156 22.039062 129.039062 22.699219 C 129.171875 23.359375 129.367188 23.996094 129.621094 24.617188 C 129.878906 25.238281 130.195312 25.828125 130.570312 26.386719 C 130.945312 26.945312 131.367188 27.460938 131.84375 27.933594 C 132.320312 28.410156 132.839844 28.832031 133.398438 29.207031 C 133.957031 29.582031 134.546875 29.894531 135.167969 30.152344 C 135.792969 30.410156 136.433594 30.601562 137.09375 30.734375 C 137.753906 30.863281 138.417969 30.929688 139.089844 30.929688 C 139.765625 30.929688 140.429688 30.863281 141.089844 30.734375 C 141.75 30.601562 142.390625 30.410156 143.015625 30.152344 C 143.636719 29.894531 144.226562 29.582031 144.785156 29.207031 C 145.34375 28.832031 145.863281 28.410156 146.339844 27.933594 C 146.816406 27.460938 147.238281 26.945312 147.613281 26.386719 C 147.988281 25.828125 148.304688 25.238281 148.558594 24.617188 C 148.816406 23.996094 149.011719 23.359375 149.144531 22.699219 C 149.273438 22.039062 149.339844 21.375 149.339844 20.703125 C 149.339844 20.03125 149.273438 19.367188 149.144531 18.707031 C 149.011719 18.050781 148.816406 17.410156 148.558594 16.789062 C 148.304688 16.167969 147.988281 15.582031 147.613281 15.023438 C 147.238281 14.464844 146.816406 13.945312 146.339844 13.472656 C 145.863281 12.996094 145.34375 12.574219 144.785156 12.199219 C 144.226562 11.828125 143.636719 11.511719 143.015625 11.253906 C 142.390625 11 141.75 10.804688 141.089844 10.671875 C 140.429688 10.542969 139.765625 10.476562 139.089844 10.476562 Z M 113.46875 10.476562 C 112.796875 10.476562 112.128906 10.542969 111.46875 10.671875 C 110.808594 10.804688 110.167969 11 109.546875 11.253906 C 108.925781 11.511719 108.335938 11.828125 107.773438 12.199219 C 107.214844 12.574219 106.699219 12.996094 106.222656 13.472656 C 105.746094 13.945312 105.320312 14.464844 104.949219 15.023438 C 104.574219 15.582031 104.257812 16.167969 104 16.789062 C 103.742188 17.410156 103.546875 18.050781 103.417969 18.707031 C 103.285156 19.367188 103.21875 20.03125 103.21875 20.703125 C 103.21875 21.375 103.285156 22.039062 103.417969 22.699219 C 103.546875 23.359375 103.742188 23.996094 104 24.617188 C 104.257812 25.238281 104.574219 25.828125 104.949219 26.386719 C 105.320312 26.945312 105.746094 27.460938 106.222656 27.933594 C 106.699219 28.410156 107.214844 28.832031 107.773438 29.207031 C 108.335938 29.582031 108.925781 29.894531 109.546875 30.152344 C 110.167969 30.410156 110.808594 30.601562 111.46875 30.734375 C 112.128906 30.863281 112.796875 30.929688 113.46875 30.929688 C 114.140625 30.929688 114.808594 30.863281 115.46875 30.734375 C 116.128906 30.601562 116.769531 30.410156 117.390625 30.152344 C 118.011719 29.894531 118.605469 29.582031 119.164062 29.207031 C 119.722656 28.832031 120.242188 28.410156 120.714844 27.933594 C 121.191406 27.460938 121.617188 26.945312 121.992188 26.386719 C 122.363281 25.828125 122.679688 25.238281 122.9375 24.617188 C 123.195312 23.996094 123.390625 23.359375 123.519531 22.699219 C 123.652344 22.039062 123.71875 21.375 123.71875 20.703125 C 123.71875 20.03125 123.652344 19.367188 123.519531 18.707031 C 123.390625 18.050781 123.195312 17.410156 122.9375 16.789062 C 122.679688 16.167969 122.363281 15.582031 121.992188 15.023438 C 121.617188 14.464844 121.191406 13.945312 120.714844 13.472656 C 120.242188 12.996094 119.722656 12.574219 119.164062 12.199219 C 118.605469 11.828125 118.011719 11.511719 117.390625 11.253906 C 116.769531 11 116.128906 10.804688 115.46875 10.671875 C 114.808594 10.542969 114.140625 10.476562 113.46875 10.476562 Z M 113.46875 10.476562 " fill-opacity="1" fill-rule="nonzero"/><path fill="#eeeeee" d="M 126.28125 46.269531 C 126.28125 47.683594 127.429688 48.828125 128.84375 48.828125 C 130.257812 48.828125 131.40625 47.683594 131.40625 46.269531 L 131.40625 38.601562 L 126.28125 38.601562 Z M 121.15625 46.269531 C 121.15625 47.683594 122.304688 48.828125 123.71875 48.828125 C 125.132812 48.828125 126.28125 47.683594 126.28125 46.269531 L 126.28125 38.601562 L 121.15625 38.601562 Z M 121.15625 46.269531 " fill-opacity="1" fill-rule="nonzero"/><path fill="#ffcc80" d="M 132.6875 41.15625 C 131.628906 41.15625 131.011719 40.941406 130.09375 40.632812 C 127.597656 39.792969 124.917969 39.800781 122.417969 40.636719 C 121.507812 40.941406 120.925781 41.15625 119.875 41.15625 C 116.457031 41.15625 116.03125 38.601562 116.03125 37.324219 C 116.03125 33.488281 119.875 30.929688 123.71875 30.929688 C 125.859375 30.929688 126.703125 30.929688 128.84375 30.929688 C 132.6875 30.929688 136.53125 33.488281 136.53125 37.324219 C 136.53125 38.601562 136.105469 41.15625 132.6875 41.15625 Z M 132.6875 41.15625 " fill-opacity="1" fill-rule="nonzero"/><path fill="#424242" d="M 133.96875 18.148438 C 133.628906 18.148438 133.300781 18.210938 132.988281 18.339844 C 132.671875 18.472656 132.394531 18.65625 132.15625 18.894531 C 131.914062 19.136719 131.730469 19.414062 131.601562 19.726562 C 131.46875 20.039062 131.40625 20.363281 131.40625 20.703125 C 131.40625 21.042969 131.46875 21.367188 131.601562 21.683594 C 131.730469 21.996094 131.914062 22.273438 132.15625 22.511719 C 132.394531 22.75 132.671875 22.9375 132.988281 23.066406 C 133.300781 23.195312 133.628906 23.261719 133.96875 23.261719 C 134.308594 23.261719 134.632812 23.195312 134.949219 23.066406 C 135.261719 22.9375 135.539062 22.75 135.777344 22.511719 C 136.019531 22.273438 136.203125 21.996094 136.335938 21.683594 C 136.464844 21.367188 136.53125 21.042969 136.53125 20.703125 C 136.53125 20.363281 136.464844 20.039062 136.335938 19.726562 C 136.203125 19.414062 136.019531 19.136719 135.777344 18.894531 C 135.539062 18.65625 135.261719 18.472656 134.949219 18.339844 C 134.632812 18.210938 134.308594 18.148438 133.96875 18.148438 Z M 108.34375 18.148438 C 108.003906 18.148438 107.679688 18.210938 107.363281 18.339844 C 107.050781 18.472656 106.773438 18.65625 106.53125 18.894531 C 106.292969 19.136719 106.109375 19.414062 105.976562 19.726562 C 105.847656 20.039062 105.78125 20.363281 105.78125 20.703125 C 105.78125 21.042969 105.847656 21.367188 105.976562 21.683594 C 106.109375 21.996094 106.292969 22.273438 106.53125 22.511719 C 106.773438 22.75 107.050781 22.9375 107.363281 23.066406 C 107.679688 23.195312 108.003906 23.261719 108.34375 23.261719 C 108.683594 23.261719 109.011719 23.195312 109.324219 23.066406 C 109.640625 22.9375 109.917969 22.75 110.15625 22.511719 C 110.398438 22.273438 110.582031 21.996094 110.710938 21.683594 C 110.84375 21.367188 110.90625 21.042969 110.90625 20.703125 C 110.90625 20.363281 110.84375 20.039062 110.710938 19.726562 C 110.582031 19.414062 110.398438 19.136719 110.15625 18.894531 C 109.917969 18.65625 109.640625 18.472656 109.324219 18.339844 C 109.011719 18.210938 108.683594 18.148438 108.34375 18.148438 Z M 126.28125 28.375 C 125.945312 28.375 125.609375 28.390625 125.28125 28.421875 C 124.949219 28.457031 124.628906 28.503906 124.320312 28.570312 C 124.007812 28.632812 123.714844 28.710938 123.433594 28.804688 C 123.152344 28.898438 122.894531 29.003906 122.65625 29.121094 C 122.417969 29.242188 122.207031 29.371094 122.019531 29.511719 C 121.832031 29.648438 121.675781 29.796875 121.546875 29.953125 C 121.417969 30.105469 121.320312 30.265625 121.253906 30.433594 C 121.1875 30.597656 121.15625 30.761719 121.15625 30.929688 C 121.15625 31.097656 121.1875 31.265625 121.253906 31.429688 C 121.320312 31.59375 121.417969 31.753906 121.546875 31.910156 C 121.675781 32.0625 121.832031 32.210938 122.019531 32.351562 C 122.207031 32.492188 122.417969 32.621094 122.65625 32.738281 C 122.894531 32.855469 123.152344 32.964844 123.433594 33.054688 C 123.714844 33.148438 124.007812 33.226562 124.320312 33.292969 C 124.628906 33.355469 124.949219 33.40625 125.28125 33.4375 C 125.609375 33.472656 125.945312 33.488281 126.28125 33.488281 C 126.617188 33.488281 126.949219 33.472656 127.28125 33.4375 C 127.609375 33.40625 127.929688 33.355469 128.242188 33.292969 C 128.550781 33.226562 128.847656 33.148438 129.128906 33.054688 C 129.40625 32.964844 129.667969 32.855469 129.902344 32.738281 C 130.140625 32.621094 130.355469 32.492188 130.542969 32.351562 C 130.726562 32.210938 130.886719 32.0625 131.015625 31.910156 C 131.144531 31.753906 131.242188 31.59375 131.304688 31.429688 C 131.371094 31.265625 131.40625 31.097656 131.40625 30.929688 C 131.40625 30.761719 131.371094 30.597656 131.304688 30.433594 C 131.242188 30.265625 131.144531 30.105469 131.015625 29.953125 C 130.886719 29.796875 130.726562 29.648438 130.542969 29.511719 C 130.355469 29.371094 130.140625 29.242188 129.902344 29.121094 C 129.667969 29.003906 129.40625 28.898438 129.128906 28.804688 C 128.847656 28.710938 128.550781 28.632812 128.242188 28.570312 C 127.929688 28.503906 127.609375 28.457031 127.28125 28.421875 C 126.949219 28.390625 126.617188 28.375 126.28125 28.375 Z M 126.28125 28.375 " fill-opacity="1" fill-rule="nonzero"/><g fill="#000000" fill-opacity="1"><g transform="translate(1.244055, 80.863513)"><g><path d="M 22.515625 -25.875 L 41.59375 -25.875 L 41.59375 -2.0625 C 36.414062 -0.28125 30.722656 0.609375 24.515625 0.609375 C 17.703125 0.609375 12.4375 -1.363281 8.71875 -5.3125 C 5 -9.269531 3.140625 -14.90625 3.140625 -22.21875 C 3.140625 -29.351562 5.175781 -34.90625 9.25 -38.875 C 13.320312 -42.84375 19.023438 -44.828125 26.359375 -44.828125 C 29.140625 -44.828125 31.765625 -44.5625 34.234375 -44.03125 C 36.703125 -43.507812 38.851562 -42.847656 40.6875 -42.046875 L 36.90625 -32.671875 C 33.71875 -34.242188 30.222656 -35.03125 26.421875 -35.03125 C 22.929688 -35.03125 20.234375 -33.894531 18.328125 -31.625 C 16.429688 -29.363281 15.484375 -26.128906 15.484375 -21.921875 C 15.484375 -17.785156 16.34375 -14.632812 18.0625 -12.46875 C 19.78125 -10.300781 22.265625 -9.21875 25.515625 -9.21875 C 27.285156 -9.21875 28.914062 -9.390625 30.40625 -9.734375 L 30.40625 -16.65625 L 22.515625 -16.65625 Z M 22.515625 -25.875 "/></g></g></g><g fill="#000000" fill-opacity="1"><g transform="translate(47.06573, 80.863513)"><g><path d="M 36.78125 -17.203125 C 36.78125 -11.597656 35.273438 -7.226562 32.265625 -4.09375 C 29.253906 -0.957031 25.039062 0.609375 19.625 0.609375 C 14.414062 0.609375 10.273438 -0.992188 7.203125 -4.203125 C 4.128906 -7.410156 2.59375 -11.742188 2.59375 -17.203125 C 2.59375 -22.785156 4.097656 -27.125 7.109375 -30.21875 C 10.128906 -33.3125 14.359375 -34.859375 19.796875 -34.859375 C 23.160156 -34.859375 26.128906 -34.140625 28.703125 -32.703125 C 31.285156 -31.273438 33.273438 -29.222656 34.671875 -26.546875 C 36.078125 -23.878906 36.78125 -20.765625 36.78125 -17.203125 Z M 14.59375 -17.203125 C 14.59375 -14.253906 14.984375 -12.007812 15.765625 -10.46875 C 16.554688 -8.925781 17.878906 -8.15625 19.734375 -8.15625 C 21.566406 -8.15625 22.859375 -8.925781 23.609375 -10.46875 C 24.367188 -12.007812 24.75 -14.253906 24.75 -17.203125 C 24.75 -20.117188 24.363281 -22.320312 23.59375 -23.8125 C 22.832031 -25.3125 21.523438 -26.0625 19.671875 -26.0625 C 17.859375 -26.0625 16.554688 -25.316406 15.765625 -23.828125 C 14.984375 -22.347656 14.59375 -20.140625 14.59375 -17.203125 Z M 14.59375 -17.203125 "/></g></g></g><g fill="#000000" fill-opacity="1"><g transform="translate(164.677127, 80.929168)"><g><path d="M 31.890625 0 L 29.71875 -8.28125 L 15.359375 -8.28125 L 13.125 0 L 0 0 L 14.421875 -44.375 L 30.34375 -44.375 L 44.953125 0 Z M 27.234375 -18.078125 L 25.328125 -25.328125 C 24.890625 -26.941406 24.351562 -29.023438 23.71875 -31.578125 C 23.082031 -34.140625 22.660156 -35.976562 22.453125 -37.09375 C 22.273438 -36.0625 21.914062 -34.363281 21.375 -32 C 20.84375 -29.644531 19.660156 -25.003906 17.828125 -18.078125 Z M 27.234375 -18.078125 "/></g></g></g><g fill="#000000" fill-opacity="1"><g transform="translate(209.623661, 80.929168)"><g><path d="M 15.90625 0 L 4.078125 0 L 4.078125 -47.03125 L 15.90625 -47.03125 Z M 15.90625 0 "/></g></g></g><g fill="#000000" fill-opacity="1"><g transform="translate(229.633483, 80.929168)"><g><path d="M 36.390625 -34.25 L 36.390625 -28.53125 L 31.703125 -26.8125 C 32.347656 -25.644531 32.671875 -24.285156 32.671875 -22.734375 C 32.671875 -19.046875 31.375 -16.179688 28.78125 -14.140625 C 26.195312 -12.109375 22.335938 -11.09375 17.203125 -11.09375 C 15.929688 -11.09375 14.921875 -11.171875 14.171875 -11.328125 C 13.890625 -10.804688 13.75 -10.316406 13.75 -9.859375 C 13.75 -9.273438 14.222656 -8.828125 15.171875 -8.515625 C 16.117188 -8.203125 17.359375 -8.046875 18.890625 -8.046875 L 24.578125 -8.046875 C 32.253906 -8.046875 36.09375 -4.8125 36.09375 1.65625 C 36.09375 5.832031 34.3125 9.078125 30.75 11.390625 C 27.195312 13.710938 22.207031 14.875 15.78125 14.875 C 10.925781 14.875 7.179688 14.0625 4.546875 12.4375 C 1.921875 10.8125 0.609375 8.476562 0.609375 5.4375 C 0.609375 1.351562 3.144531 -1.285156 8.21875 -2.484375 C 7.175781 -2.921875 6.265625 -3.632812 5.484375 -4.625 C 4.710938 -5.613281 4.328125 -6.59375 4.328125 -7.5625 C 4.328125 -8.625 4.617188 -9.5625 5.203125 -10.375 C 5.785156 -11.195312 7.003906 -12.171875 8.859375 -13.296875 C 7.085938 -14.085938 5.691406 -15.316406 4.671875 -16.984375 C 3.648438 -18.660156 3.140625 -20.695312 3.140625 -23.09375 C 3.140625 -26.820312 4.410156 -29.710938 6.953125 -31.765625 C 9.492188 -33.828125 13.117188 -34.859375 17.828125 -34.859375 C 18.453125 -34.859375 19.53125 -34.785156 21.0625 -34.640625 C 22.59375 -34.492188 23.722656 -34.363281 24.453125 -34.25 Z M 10.578125 4.265625 C 10.578125 5.234375 11.097656 6.015625 12.140625 6.609375 C 13.191406 7.203125 14.597656 7.5 16.359375 7.5 C 19.210938 7.5 21.5 7.140625 23.21875 6.421875 C 24.945312 5.703125 25.8125 4.78125 25.8125 3.65625 C 25.8125 2.75 25.285156 2.109375 24.234375 1.734375 C 23.191406 1.359375 21.691406 1.171875 19.734375 1.171875 L 15.109375 1.171875 C 13.835938 1.171875 12.765625 1.46875 11.890625 2.0625 C 11.015625 2.664062 10.578125 3.398438 10.578125 4.265625 Z M 14.296875 -23.03125 C 14.296875 -19.53125 15.515625 -17.78125 17.953125 -17.78125 C 19.078125 -17.78125 19.945312 -18.210938 20.5625 -19.078125 C 21.175781 -19.941406 21.484375 -21.238281 21.484375 -22.96875 C 21.484375 -26.519531 20.304688 -28.296875 17.953125 -28.296875 C 15.515625 -28.296875 14.296875 -26.539062 14.296875 -23.03125 Z M 14.296875 -23.03125 "/></g></g></g><g fill="#000000" fill-opacity="1"><g transform="translate(267.144343, 80.929168)"><g><path d="M 36.78125 -17.203125 C 36.78125 -11.597656 35.273438 -7.226562 32.265625 -4.09375 C 29.253906 -0.957031 25.039062 0.609375 19.625 0.609375 C 14.414062 0.609375 10.273438 -0.992188 7.203125 -4.203125 C 4.128906 -7.410156 2.59375 -11.742188 2.59375 -17.203125 C 2.59375 -22.785156 4.097656 -27.125 7.109375 -30.21875 C 10.128906 -33.3125 14.359375 -34.859375 19.796875 -34.859375 C 23.160156 -34.859375 26.128906 -34.140625 28.703125 -32.703125 C 31.285156 -31.273438 33.273438 -29.222656 34.671875 -26.546875 C 36.078125 -23.878906 36.78125 -20.765625 36.78125 -17.203125 Z M 14.59375 -17.203125 C 14.59375 -14.253906 14.984375 -12.007812 15.765625 -10.46875 C 16.554688 -8.925781 17.878906 -8.15625 19.734375 -8.15625 C 21.566406 -8.15625 22.859375 -8.925781 23.609375 -10.46875 C 24.367188 -12.007812 24.75 -14.253906 24.75 -17.203125 C 24.75 -20.117188 24.363281 -22.320312 23.59375 -23.8125 C 22.832031 -25.3125 21.523438 -26.0625 19.671875 -26.0625 C 17.859375 -26.0625 16.554688 -25.316406 15.765625 -23.828125 C 14.984375 -22.347656 14.59375 -20.140625 14.59375 -17.203125 Z M 14.59375 -17.203125 "/></g></g></g></svg>