<svg xmlns="http://www.w3.org/2000/svg" xmlns:xlink="http://www.w3.org/1999/xlink" width="500" zoomAndPan="magnify" viewBox="0 0 375 187.499995" height="250" preserveAspectRatio="xMidYMid meet" version="1.0"><defs><g/><clipPath id="id1"><path d="M 122 86 L 198.636719 86 L 198.636719 147 L 122 147 Z M 122 86 " clip-rule="nonzero"/></clipPath><clipPath id="id2"><path d="M 127 39.527344 L 194 39.527344 L 194 144 L 127 144 Z M 127 39.527344 " clip-rule="nonzero"/></clipPath></defs><g clip-path="url(#id1)"><path fill="#ffcc80" d="M 189.601562 140.019531 L 181.507812 131.945312 L 176.117188 137.328125 L 184.207031 145.402344 C 185.699219 146.886719 188.113281 146.886719 189.601562 145.402344 C 191.089844 143.914062 191.089844 141.507812 189.601562 140.019531 Z M 197.230469 94.351562 L 189.136719 86.277344 L 183.746094 91.65625 L 191.835938 99.730469 C 193.324219 101.21875 195.742188 101.21875 197.230469 99.730469 C 198.714844 98.246094 198.71875 95.835938 197.230469 94.351562 Z M 131.464844 140.019531 L 139.554688 131.945312 L 144.949219 137.328125 L 136.855469 145.402344 C 135.367188 146.886719 132.953125 146.886719 131.464844 145.402344 C 129.976562 143.914062 129.972656 141.507812 131.464844 140.019531 Z M 123.199219 94.351562 L 131.289062 86.277344 L 136.683594 91.65625 L 128.59375 99.730469 C 127.101562 101.21875 124.6875 101.21875 123.199219 99.730469 C 121.710938 98.246094 121.710938 95.835938 123.199219 94.351562 Z M 123.199219 94.351562 " fill-opacity="1" fill-rule="nonzero"/></g><path fill="#4dd0e1" d="M 195.835938 52.660156 C 195.835938 47.757812 192.917969 45.050781 187.621094 45.050781 C 182.328125 45.050781 178.039062 51.5625 178.039062 56.46875 C 178.039062 59.003906 182.929688 60.273438 185.667969 60.273438 C 190.960938 60.273438 195.835938 57.566406 195.835938 52.660156 Z M 124.640625 52.660156 C 124.640625 47.757812 127.5625 45.050781 132.855469 45.050781 C 138.152344 45.050781 142.441406 51.5625 142.441406 56.46875 C 142.441406 59.003906 137.550781 60.273438 134.8125 60.273438 C 129.519531 60.273438 124.640625 57.566406 124.640625 52.660156 Z M 124.640625 52.660156 " fill-opacity="1" fill-rule="nonzero"/><path fill="#424242" d="M 188.210938 50.125 C 187.871094 50.125 187.546875 50.1875 187.238281 50.316406 C 186.925781 50.445312 186.648438 50.628906 186.410156 50.867188 C 186.171875 51.105469 185.988281 51.378906 185.859375 51.691406 C 185.730469 52 185.667969 52.324219 185.667969 52.660156 C 185.667969 52.996094 185.730469 53.320312 185.859375 53.632812 C 185.988281 53.941406 186.171875 54.21875 186.410156 54.457031 C 186.648438 54.691406 186.925781 54.875 187.238281 55.003906 C 187.546875 55.132812 187.871094 55.199219 188.210938 55.199219 C 188.546875 55.199219 188.871094 55.132812 189.183594 55.003906 C 189.496094 54.875 189.769531 54.691406 190.007812 54.457031 C 190.246094 54.21875 190.429688 53.941406 190.558594 53.632812 C 190.6875 53.320312 190.753906 52.996094 190.753906 52.660156 C 190.753906 52.324219 190.6875 52 190.558594 51.691406 C 190.429688 51.378906 190.246094 51.105469 190.007812 50.867188 C 189.769531 50.628906 189.496094 50.445312 189.183594 50.316406 C 188.871094 50.1875 188.546875 50.125 188.210938 50.125 Z M 132.269531 50.125 C 131.933594 50.125 131.609375 50.1875 131.296875 50.316406 C 130.984375 50.445312 130.710938 50.628906 130.472656 50.867188 C 130.234375 51.105469 130.050781 51.378906 129.921875 51.691406 C 129.792969 52 129.726562 52.324219 129.726562 52.660156 C 129.726562 52.996094 129.792969 53.320312 129.921875 53.632812 C 130.050781 53.941406 130.234375 54.21875 130.472656 54.457031 C 130.710938 54.691406 130.984375 54.875 131.296875 55.003906 C 131.609375 55.132812 131.933594 55.199219 132.269531 55.199219 C 132.605469 55.199219 132.929688 55.132812 133.242188 55.003906 C 133.554688 54.875 133.828125 54.691406 134.066406 54.457031 C 134.304688 54.21875 134.488281 53.941406 134.617188 53.632812 C 134.746094 53.320312 134.8125 52.996094 134.8125 52.660156 C 134.8125 52.324219 134.746094 52 134.617188 51.691406 C 134.488281 51.378906 134.304688 51.105469 134.066406 50.867188 C 133.828125 50.628906 133.554688 50.445312 133.242188 50.316406 C 132.929688 50.1875 132.605469 50.125 132.269531 50.125 Z M 132.269531 50.125 " fill-opacity="1" fill-rule="nonzero"/><g clip-path="url(#id2)"><path fill="#4dd0e1" d="M 193.296875 118.628906 C 193.296875 130.742188 185.109375 144 159.453125 144 C 138.800781 144 127.183594 130.742188 127.183594 118.628906 C 127.183594 105.941406 129.726562 103.898438 129.726562 93.257812 C 129.726562 81.363281 129.726562 75.496094 129.726562 67.882812 C 129.726562 55.773438 137.546875 39.976562 159.453125 39.976562 C 181.355469 39.976562 190.753906 50.101562 190.753906 65.347656 C 190.753906 72.957031 190.148438 79.183594 190.753906 90.71875 C 191.226562 99.757812 193.296875 111.015625 193.296875 118.628906 Z M 193.296875 118.628906 " fill-opacity="1" fill-rule="nonzero"/></g><path fill="#f5f5f5" d="M 172.953125 47.585938 C 172.285156 47.585938 171.625 47.652344 170.96875 47.78125 C 170.3125 47.910156 169.679688 48.105469 169.0625 48.359375 C 168.445312 48.613281 167.859375 48.925781 167.300781 49.296875 C 166.746094 49.667969 166.234375 50.089844 165.761719 50.558594 C 165.289062 51.03125 164.867188 51.542969 164.496094 52.097656 C 164.125 52.652344 163.8125 53.234375 163.558594 53.851562 C 163.300781 54.46875 163.109375 55.101562 162.976562 55.753906 C 162.847656 56.410156 162.78125 57.070312 162.78125 57.734375 C 162.78125 58.402344 162.847656 59.0625 162.976562 59.714844 C 163.109375 60.367188 163.300781 61.003906 163.558594 61.621094 C 163.8125 62.234375 164.125 62.820312 164.496094 63.375 C 164.867188 63.929688 165.289062 64.441406 165.761719 64.910156 C 166.234375 65.382812 166.746094 65.804688 167.300781 66.175781 C 167.859375 66.542969 168.445312 66.855469 169.0625 67.113281 C 169.679688 67.367188 170.3125 67.558594 170.96875 67.6875 C 171.625 67.820312 172.285156 67.882812 172.953125 67.882812 C 173.621094 67.882812 174.28125 67.820312 174.9375 67.6875 C 175.59375 67.558594 176.230469 67.367188 176.84375 67.113281 C 177.460938 66.855469 178.046875 66.542969 178.605469 66.175781 C 179.160156 65.804688 179.671875 65.382812 180.144531 64.910156 C 180.617188 64.441406 181.039062 63.929688 181.410156 63.375 C 181.78125 62.820312 182.09375 62.234375 182.351562 61.621094 C 182.605469 61.003906 182.796875 60.367188 182.929688 59.714844 C 183.058594 59.0625 183.125 58.402344 183.125 57.734375 C 183.125 57.070312 183.058594 56.410156 182.929688 55.753906 C 182.796875 55.101562 182.605469 54.46875 182.351562 53.851562 C 182.09375 53.234375 181.78125 52.652344 181.410156 52.097656 C 181.039062 51.542969 180.617188 51.03125 180.144531 50.558594 C 179.671875 50.089844 179.160156 49.667969 178.605469 49.296875 C 178.046875 48.925781 177.460938 48.613281 176.84375 48.359375 C 176.230469 48.105469 175.59375 47.910156 174.9375 47.78125 C 174.28125 47.652344 173.621094 47.585938 172.953125 47.585938 Z M 147.527344 47.585938 C 146.859375 47.585938 146.195312 47.652344 145.542969 47.78125 C 144.886719 47.910156 144.25 48.105469 143.632812 48.359375 C 143.015625 48.613281 142.429688 48.925781 141.875 49.296875 C 141.320312 49.667969 140.804688 50.089844 140.335938 50.558594 C 139.863281 51.03125 139.441406 51.542969 139.070312 52.097656 C 138.699219 52.652344 138.386719 53.234375 138.128906 53.851562 C 137.875 54.46875 137.679688 55.101562 137.550781 55.753906 C 137.421875 56.410156 137.355469 57.070312 137.355469 57.734375 C 137.355469 58.402344 137.421875 59.0625 137.550781 59.714844 C 137.679688 60.367188 137.875 61.003906 138.128906 61.621094 C 138.386719 62.234375 138.699219 62.820312 139.070312 63.375 C 139.441406 63.929688 139.863281 64.441406 140.335938 64.910156 C 140.804688 65.382812 141.320312 65.804688 141.875 66.175781 C 142.429688 66.542969 143.015625 66.855469 143.632812 67.113281 C 144.25 67.367188 144.886719 67.558594 145.542969 67.6875 C 146.195312 67.820312 146.859375 67.882812 147.527344 67.882812 C 148.195312 67.882812 148.855469 67.820312 149.511719 67.6875 C 150.164062 67.558594 150.800781 67.367188 151.417969 67.113281 C 152.035156 66.855469 152.621094 66.542969 153.175781 66.175781 C 153.730469 65.804688 154.246094 65.382812 154.71875 64.910156 C 155.191406 64.441406 155.613281 63.929688 155.984375 63.375 C 156.355469 62.820312 156.667969 62.234375 156.921875 61.621094 C 157.179688 61.003906 157.371094 60.367188 157.5 59.714844 C 157.632812 59.0625 157.695312 58.402344 157.695312 57.734375 C 157.695312 57.070312 157.632812 56.410156 157.5 55.753906 C 157.371094 55.101562 157.179688 54.46875 156.921875 53.851562 C 156.667969 53.234375 156.355469 52.652344 155.984375 52.097656 C 155.613281 51.542969 155.191406 51.03125 154.71875 50.558594 C 154.246094 50.089844 153.730469 49.667969 153.175781 49.296875 C 152.621094 48.925781 152.035156 48.613281 151.417969 48.359375 C 150.800781 48.105469 150.164062 47.910156 149.511719 47.78125 C 148.855469 47.652344 148.195312 47.585938 147.527344 47.585938 Z M 147.527344 47.585938 " fill-opacity="1" fill-rule="nonzero"/><path fill="#eeeeee" d="M 160.238281 83.109375 C 160.238281 84.507812 161.378906 85.644531 162.78125 85.644531 C 164.1875 85.644531 165.324219 84.507812 165.324219 83.109375 L 165.324219 75.496094 L 160.238281 75.496094 Z M 155.152344 83.109375 C 155.152344 84.507812 156.292969 85.644531 157.695312 85.644531 C 159.101562 85.644531 160.238281 84.507812 160.238281 83.109375 L 160.238281 75.496094 L 155.152344 75.496094 Z M 155.152344 83.109375 " fill-opacity="1" fill-rule="nonzero"/><path fill="#ffcc80" d="M 166.597656 78.035156 C 165.550781 78.035156 164.9375 77.816406 164.027344 77.511719 C 161.546875 76.679688 158.886719 76.6875 156.40625 77.519531 C 155.503906 77.820312 154.925781 78.035156 153.882812 78.035156 C 150.492188 78.035156 150.070312 75.496094 150.070312 74.226562 C 150.070312 70.421875 153.882812 67.882812 157.695312 67.882812 C 159.820312 67.882812 160.660156 67.882812 162.78125 67.882812 C 166.597656 67.882812 170.410156 70.421875 170.410156 74.226562 C 170.410156 75.496094 169.988281 78.035156 166.597656 78.035156 Z M 166.597656 78.035156 " fill-opacity="1" fill-rule="nonzero"/><path fill="#424242" d="M 167.867188 55.199219 C 167.53125 55.199219 167.207031 55.261719 166.894531 55.390625 C 166.582031 55.519531 166.308594 55.703125 166.070312 55.941406 C 165.832031 56.179688 165.648438 56.453125 165.519531 56.765625 C 165.390625 57.074219 165.324219 57.398438 165.324219 57.734375 C 165.324219 58.070312 165.390625 58.394531 165.519531 58.707031 C 165.648438 59.015625 165.832031 59.292969 166.070312 59.53125 C 166.308594 59.765625 166.582031 59.949219 166.894531 60.078125 C 167.207031 60.207031 167.53125 60.273438 167.867188 60.273438 C 168.203125 60.273438 168.53125 60.207031 168.839844 60.078125 C 169.152344 59.949219 169.425781 59.765625 169.664062 59.53125 C 169.902344 59.292969 170.089844 59.015625 170.21875 58.707031 C 170.347656 58.394531 170.410156 58.070312 170.410156 57.734375 C 170.410156 57.398438 170.347656 57.074219 170.21875 56.765625 C 170.089844 56.453125 169.902344 56.179688 169.664062 55.941406 C 169.425781 55.703125 169.152344 55.519531 168.839844 55.390625 C 168.53125 55.261719 168.203125 55.199219 167.867188 55.199219 Z M 142.441406 55.199219 C 142.101562 55.199219 141.777344 55.261719 141.46875 55.390625 C 141.15625 55.519531 140.882812 55.703125 140.644531 55.941406 C 140.402344 56.179688 140.21875 56.453125 140.089844 56.765625 C 139.960938 57.074219 139.898438 57.398438 139.898438 57.734375 C 139.898438 58.070312 139.960938 58.394531 140.089844 58.707031 C 140.21875 59.015625 140.402344 59.292969 140.644531 59.53125 C 140.882812 59.765625 141.15625 59.949219 141.46875 60.078125 C 141.777344 60.207031 142.101562 60.273438 142.441406 60.273438 C 142.777344 60.273438 143.101562 60.207031 143.414062 60.078125 C 143.726562 59.949219 144 59.765625 144.238281 59.53125 C 144.476562 59.292969 144.660156 59.015625 144.789062 58.707031 C 144.917969 58.394531 144.984375 58.070312 144.984375 57.734375 C 144.984375 57.398438 144.917969 57.074219 144.789062 56.765625 C 144.660156 56.453125 144.476562 56.179688 144.238281 55.941406 C 144 55.703125 143.726562 55.519531 143.414062 55.390625 C 143.101562 55.261719 142.777344 55.199219 142.441406 55.199219 Z M 160.238281 65.347656 C 159.90625 65.347656 159.574219 65.363281 159.246094 65.394531 C 158.921875 65.429688 158.601562 65.476562 158.292969 65.539062 C 157.984375 65.605469 157.691406 65.683594 157.414062 65.773438 C 157.136719 65.867188 156.878906 65.972656 156.644531 66.089844 C 156.40625 66.207031 156.195312 66.335938 156.011719 66.476562 C 155.824219 66.613281 155.667969 66.757812 155.542969 66.914062 C 155.414062 67.066406 155.316406 67.226562 155.253906 67.390625 C 155.1875 67.554688 155.152344 67.71875 155.152344 67.882812 C 155.152344 68.050781 155.1875 68.214844 155.253906 68.378906 C 155.316406 68.542969 155.414062 68.703125 155.542969 68.855469 C 155.667969 69.007812 155.824219 69.15625 156.011719 69.292969 C 156.195312 69.433594 156.40625 69.5625 156.644531 69.679688 C 156.878906 69.796875 157.136719 69.902344 157.414062 69.992188 C 157.691406 70.085938 157.984375 70.164062 158.292969 70.226562 C 158.601562 70.292969 158.921875 70.339844 159.246094 70.371094 C 159.574219 70.40625 159.90625 70.421875 160.238281 70.421875 C 160.574219 70.421875 160.90625 70.40625 161.230469 70.371094 C 161.558594 70.339844 161.878906 70.292969 162.1875 70.226562 C 162.496094 70.164062 162.789062 70.085938 163.066406 69.992188 C 163.34375 69.902344 163.597656 69.796875 163.835938 69.679688 C 164.070312 69.5625 164.28125 69.433594 164.46875 69.292969 C 164.652344 69.15625 164.808594 69.007812 164.9375 68.855469 C 165.066406 68.703125 165.164062 68.542969 165.226562 68.378906 C 165.292969 68.214844 165.324219 68.050781 165.324219 67.882812 C 165.324219 67.71875 165.292969 67.554688 165.226562 67.390625 C 165.164062 67.226562 165.066406 67.066406 164.9375 66.914062 C 164.808594 66.757812 164.652344 66.613281 164.46875 66.476562 C 164.28125 66.335938 164.070312 66.207031 163.835938 66.089844 C 163.597656 65.972656 163.34375 65.867188 163.066406 65.773438 C 162.789062 65.683594 162.496094 65.605469 162.1875 65.539062 C 161.878906 65.476562 161.558594 65.429688 161.230469 65.394531 C 160.90625 65.363281 160.574219 65.347656 160.238281 65.347656 Z M 160.238281 65.347656 " fill-opacity="1" fill-rule="nonzero"/><g fill="#000000" fill-opacity="1"><g transform="translate(36.156039, 117.436827)"><g><path d="M 22.34375 -25.671875 L 41.28125 -25.671875 L 41.28125 -2.046875 C 36.132812 -0.285156 30.484375 0.59375 24.328125 0.59375 C 17.566406 0.59375 12.34375 -1.363281 8.65625 -5.28125 C 4.96875 -9.195312 3.125 -14.785156 3.125 -22.046875 C 3.125 -29.128906 5.140625 -34.640625 9.171875 -38.578125 C 13.210938 -42.515625 18.875 -44.484375 26.15625 -44.484375 C 28.914062 -44.484375 31.519531 -44.222656 33.96875 -43.703125 C 36.425781 -43.179688 38.5625 -42.523438 40.375 -41.734375 L 36.625 -32.421875 C 33.46875 -33.984375 30 -34.765625 26.21875 -34.765625 C 22.757812 -34.765625 20.082031 -33.640625 18.1875 -31.390625 C 16.300781 -29.140625 15.359375 -25.925781 15.359375 -21.75 C 15.359375 -17.644531 16.210938 -14.519531 17.921875 -12.375 C 19.628906 -10.226562 22.09375 -9.15625 25.3125 -9.15625 C 27.070312 -9.15625 28.691406 -9.320312 30.171875 -9.65625 L 30.171875 -16.53125 L 22.34375 -16.53125 Z M 22.34375 -25.671875 "/></g></g></g><g fill="#000000" fill-opacity="1"><g transform="translate(81.628587, 117.436827)"><g><path d="M 36.515625 -17.0625 C 36.515625 -11.507812 35.015625 -7.175781 32.015625 -4.0625 C 29.023438 -0.957031 24.84375 0.59375 19.46875 0.59375 C 14.3125 0.59375 10.207031 -0.992188 7.15625 -4.171875 C 4.101562 -7.347656 2.578125 -11.644531 2.578125 -17.0625 C 2.578125 -22.601562 4.070312 -26.910156 7.0625 -29.984375 C 10.050781 -33.054688 14.25 -34.59375 19.65625 -34.59375 C 22.988281 -34.59375 25.9375 -33.878906 28.5 -32.453125 C 31.0625 -31.035156 33.035156 -29 34.421875 -26.34375 C 35.816406 -23.695312 36.515625 -20.601562 36.515625 -17.0625 Z M 14.484375 -17.0625 C 14.484375 -14.144531 14.875 -11.921875 15.65625 -10.390625 C 16.4375 -8.859375 17.75 -8.09375 19.59375 -8.09375 C 21.40625 -8.09375 22.6875 -8.859375 23.4375 -10.390625 C 24.1875 -11.921875 24.5625 -14.144531 24.5625 -17.0625 C 24.5625 -19.96875 24.179688 -22.160156 23.421875 -23.640625 C 22.671875 -25.117188 21.375 -25.859375 19.53125 -25.859375 C 17.726562 -25.859375 16.4375 -25.125 15.65625 -23.65625 C 14.875 -22.1875 14.484375 -19.988281 14.484375 -17.0625 Z M 14.484375 -17.0625 "/></g></g></g><g fill="#000000" fill-opacity="1"><g transform="translate(198.343876, 117.501982)"><g><path d="M 31.65625 0 L 29.484375 -8.21875 L 15.234375 -8.21875 L 13.015625 0 L 0 0 L 14.3125 -44.03125 L 30.125 -44.03125 L 44.609375 0 Z M 27.03125 -17.9375 L 25.140625 -25.140625 C 24.703125 -26.734375 24.164062 -28.800781 23.53125 -31.34375 C 22.90625 -33.882812 22.492188 -35.707031 22.296875 -36.8125 C 22.109375 -35.789062 21.75 -34.109375 21.21875 -31.765625 C 20.6875 -29.429688 19.515625 -24.820312 17.703125 -17.9375 Z M 27.03125 -17.9375 "/></g></g></g><g fill="#000000" fill-opacity="1"><g transform="translate(242.947951, 117.501982)"><g><path d="M 15.78125 0 L 4.046875 0 L 4.046875 -46.671875 L 15.78125 -46.671875 Z M 15.78125 0 "/></g></g></g><g fill="#000000" fill-opacity="1"><g transform="translate(262.805314, 117.501982)"><g><path d="M 36.125 -33.984375 L 36.125 -28.3125 L 31.46875 -26.609375 C 32.101562 -25.453125 32.421875 -24.101562 32.421875 -22.5625 C 32.421875 -18.894531 31.132812 -16.050781 28.5625 -14.03125 C 26 -12.019531 22.164062 -11.015625 17.0625 -11.015625 C 15.800781 -11.015625 14.800781 -11.09375 14.0625 -11.25 C 13.789062 -10.726562 13.65625 -10.238281 13.65625 -9.78125 C 13.65625 -9.195312 14.125 -8.75 15.0625 -8.4375 C 16 -8.132812 17.226562 -7.984375 18.75 -7.984375 L 24.390625 -7.984375 C 32.003906 -7.984375 35.8125 -4.769531 35.8125 1.65625 C 35.8125 5.789062 34.046875 9.007812 30.515625 11.3125 C 26.992188 13.613281 22.039062 14.765625 15.65625 14.765625 C 10.832031 14.765625 7.113281 13.957031 4.5 12.34375 C 1.894531 10.726562 0.59375 8.414062 0.59375 5.40625 C 0.59375 1.34375 3.113281 -1.273438 8.15625 -2.453125 C 7.113281 -2.898438 6.207031 -3.613281 5.4375 -4.59375 C 4.675781 -5.570312 4.296875 -6.539062 4.296875 -7.5 C 4.296875 -8.5625 4.582031 -9.492188 5.15625 -10.296875 C 5.738281 -11.109375 6.953125 -12.078125 8.796875 -13.203125 C 7.035156 -13.984375 5.648438 -15.203125 4.640625 -16.859375 C 3.628906 -18.515625 3.125 -20.535156 3.125 -22.921875 C 3.125 -26.617188 4.378906 -29.488281 6.890625 -31.53125 C 9.410156 -33.570312 13.015625 -34.59375 17.703125 -34.59375 C 18.316406 -34.59375 19.382812 -34.519531 20.90625 -34.375 C 22.425781 -34.238281 23.546875 -34.109375 24.265625 -33.984375 Z M 10.5 4.234375 C 10.5 5.191406 11.019531 5.960938 12.0625 6.546875 C 13.101562 7.140625 14.492188 7.4375 16.234375 7.4375 C 19.066406 7.4375 21.335938 7.082031 23.046875 6.375 C 24.765625 5.664062 25.625 4.75 25.625 3.625 C 25.625 2.726562 25.101562 2.09375 24.0625 1.71875 C 23.019531 1.351562 21.53125 1.171875 19.59375 1.171875 L 15 1.171875 C 13.738281 1.171875 12.671875 1.460938 11.796875 2.046875 C 10.929688 2.640625 10.5 3.367188 10.5 4.234375 Z M 14.1875 -22.859375 C 14.1875 -19.378906 15.394531 -17.640625 17.8125 -17.640625 C 18.9375 -17.640625 19.800781 -18.066406 20.40625 -18.921875 C 21.019531 -19.785156 21.328125 -21.078125 21.328125 -22.796875 C 21.328125 -26.316406 20.15625 -28.078125 17.8125 -28.078125 C 15.394531 -28.078125 14.1875 -26.335938 14.1875 -22.859375 Z M 14.1875 -22.859375 "/></g></g></g><g fill="#000000" fill-opacity="1"><g transform="translate(300.030369, 117.501982)"><g><path d="M 36.515625 -17.0625 C 36.515625 -11.507812 35.015625 -7.175781 32.015625 -4.0625 C 29.023438 -0.957031 24.84375 0.59375 19.46875 0.59375 C 14.3125 0.59375 10.207031 -0.992188 7.15625 -4.171875 C 4.101562 -7.347656 2.578125 -11.644531 2.578125 -17.0625 C 2.578125 -22.601562 4.070312 -26.910156 7.0625 -29.984375 C 10.050781 -33.054688 14.25 -34.59375 19.65625 -34.59375 C 22.988281 -34.59375 25.9375 -33.878906 28.5 -32.453125 C 31.0625 -31.035156 33.035156 -29 34.421875 -26.34375 C 35.816406 -23.695312 36.515625 -20.601562 36.515625 -17.0625 Z M 14.484375 -17.0625 C 14.484375 -14.144531 14.875 -11.921875 15.65625 -10.390625 C 16.4375 -8.859375 17.75 -8.09375 19.59375 -8.09375 C 21.40625 -8.09375 22.6875 -8.859375 23.4375 -10.390625 C 24.1875 -11.921875 24.5625 -14.144531 24.5625 -17.0625 C 24.5625 -19.96875 24.179688 -22.160156 23.421875 -23.640625 C 22.671875 -25.117188 21.375 -25.859375 19.53125 -25.859375 C 17.726562 -25.859375 16.4375 -25.125 15.65625 -23.65625 C 14.875 -22.1875 14.484375 -19.988281 14.484375 -17.0625 Z M 14.484375 -17.0625 "/></g></g></g></svg>