<svg xmlns="http://www.w3.org/2000/svg" xmlns:xlink="http://www.w3.org/1999/xlink" width="500" zoomAndPan="magnify" viewBox="0 0 375 374.999991" height="500" preserveAspectRatio="xMidYMid meet" version="1.0"><defs><g/><clipPath id="id1"><path d="M 98.207031 177 L 199.96875 177 L 199.96875 256 L 98.207031 256 Z M 98.207031 177 " clip-rule="nonzero"/></clipPath></defs><g clip-path="url(#id1)"><path fill="#ffcc80" d="M 188.035156 247.105469 L 177.351562 236.621094 L 170.226562 243.609375 L 180.914062 254.097656 C 182.882812 256.027344 186.070312 256.027344 188.035156 254.097656 C 190 252.164062 190.003906 249.039062 188.035156 247.105469 Z M 198.113281 187.78125 L 187.425781 177.296875 L 180.300781 184.285156 L 190.988281 194.773438 C 192.957031 196.703125 196.148438 196.703125 198.113281 194.773438 C 200.078125 192.84375 200.082031 189.714844 198.113281 187.78125 Z M 111.25 247.105469 L 121.933594 236.621094 L 129.058594 243.609375 L 118.371094 254.097656 C 116.402344 256.027344 113.214844 256.027344 111.25 254.097656 C 109.285156 252.164062 109.28125 249.039062 111.25 247.105469 Z M 100.332031 187.78125 L 111.019531 177.296875 L 118.144531 184.285156 L 107.457031 194.773438 C 105.488281 196.703125 102.296875 196.703125 100.332031 194.773438 C 98.367188 192.84375 98.367188 189.714844 100.332031 187.78125 Z M 100.332031 187.78125 " fill-opacity="1" fill-rule="nonzero"/></g><path fill="#4dd0e1" d="M 196.273438 133.632812 C 196.273438 127.261719 192.417969 123.742188 185.425781 123.742188 C 178.433594 123.742188 172.765625 132.203125 172.765625 138.574219 C 172.765625 141.871094 179.222656 143.519531 182.839844 143.519531 C 189.832031 143.519531 196.273438 140 196.273438 133.632812 Z M 102.238281 133.632812 C 102.238281 127.261719 106.097656 123.742188 113.089844 123.742188 C 120.082031 123.742188 125.746094 132.203125 125.746094 138.574219 C 125.746094 141.871094 119.289062 143.519531 115.671875 143.519531 C 108.679688 143.519531 102.238281 140 102.238281 133.632812 Z M 102.238281 133.632812 " fill-opacity="1" fill-rule="nonzero"/><path fill="#424242" d="M 186.199219 130.335938 C 185.753906 130.335938 185.324219 130.417969 184.914062 130.585938 C 184.503906 130.753906 184.140625 130.992188 183.824219 131.300781 C 183.511719 131.609375 183.265625 131.964844 183.097656 132.371094 C 182.925781 132.773438 182.839844 133.195312 182.839844 133.632812 C 182.839844 134.066406 182.925781 134.488281 183.097656 134.890625 C 183.265625 135.296875 183.511719 135.652344 183.824219 135.960938 C 184.140625 136.269531 184.503906 136.507812 184.914062 136.675781 C 185.324219 136.84375 185.753906 136.925781 186.199219 136.925781 C 186.644531 136.925781 187.074219 136.84375 187.484375 136.675781 C 187.898438 136.507812 188.257812 136.269531 188.574219 135.960938 C 188.890625 135.652344 189.132812 135.296875 189.300781 134.890625 C 189.472656 134.488281 189.558594 134.066406 189.558594 133.632812 C 189.558594 133.195312 189.472656 132.773438 189.300781 132.371094 C 189.132812 131.964844 188.890625 131.609375 188.574219 131.300781 C 188.257812 130.992188 187.898438 130.753906 187.484375 130.585938 C 187.074219 130.417969 186.644531 130.335938 186.199219 130.335938 Z M 112.3125 130.335938 C 111.867188 130.335938 111.441406 130.417969 111.027344 130.585938 C 110.617188 130.753906 110.253906 130.992188 109.9375 131.300781 C 109.625 131.609375 109.382812 131.964844 109.210938 132.371094 C 109.039062 132.773438 108.953125 133.195312 108.953125 133.632812 C 108.953125 134.066406 109.039062 134.488281 109.210938 134.890625 C 109.382812 135.296875 109.625 135.652344 109.9375 135.960938 C 110.253906 136.269531 110.617188 136.507812 111.027344 136.675781 C 111.441406 136.84375 111.867188 136.925781 112.3125 136.925781 C 112.757812 136.925781 113.1875 136.84375 113.597656 136.675781 C 114.011719 136.507812 114.375 136.269531 114.6875 135.960938 C 115.003906 135.652344 115.246094 135.296875 115.417969 134.890625 C 115.585938 134.488281 115.671875 134.066406 115.671875 133.632812 C 115.671875 133.195312 115.585938 132.773438 115.417969 132.371094 C 115.246094 131.964844 115.003906 131.609375 114.6875 131.300781 C 114.375 130.992188 114.011719 130.753906 113.597656 130.585938 C 113.1875 130.417969 112.757812 130.335938 112.3125 130.335938 Z M 112.3125 130.335938 " fill-opacity="1" fill-rule="nonzero"/><path fill="#4dd0e1" d="M 192.917969 219.320312 C 192.917969 235.054688 182.105469 252.277344 148.214844 252.277344 C 120.9375 252.277344 105.597656 235.054688 105.597656 219.320312 C 105.597656 202.839844 108.953125 200.183594 108.953125 186.363281 C 108.953125 170.914062 108.953125 163.292969 108.953125 153.40625 C 108.953125 137.671875 119.285156 117.152344 148.214844 117.152344 C 177.144531 117.152344 189.558594 130.304688 189.558594 150.109375 C 189.558594 159.996094 188.761719 168.082031 189.558594 183.066406 C 190.183594 194.804688 192.917969 209.433594 192.917969 219.320312 Z M 192.917969 219.320312 " fill-opacity="1" fill-rule="nonzero"/><path fill="#f5f5f5" d="M 166.050781 127.039062 C 165.167969 127.039062 164.292969 127.125 163.429688 127.292969 C 162.5625 127.460938 161.722656 127.710938 160.90625 128.042969 C 160.09375 128.375 159.320312 128.78125 158.585938 129.261719 C 157.851562 129.742188 157.171875 130.289062 156.550781 130.902344 C 155.925781 131.511719 155.371094 132.179688 154.878906 132.898438 C 154.390625 133.617188 153.976562 134.378906 153.636719 135.175781 C 153.300781 135.976562 153.046875 136.800781 152.875 137.652344 C 152.699219 138.5 152.613281 139.355469 152.613281 140.222656 C 152.613281 141.089844 152.699219 141.945312 152.875 142.792969 C 153.046875 143.644531 153.300781 144.46875 153.636719 145.265625 C 153.976562 146.066406 154.390625 146.828125 154.878906 147.546875 C 155.371094 148.265625 155.925781 148.933594 156.550781 149.542969 C 157.171875 150.15625 157.851562 150.703125 158.585938 151.183594 C 159.320312 151.664062 160.09375 152.070312 160.90625 152.402344 C 161.722656 152.734375 162.5625 152.984375 163.429688 153.152344 C 164.292969 153.320312 165.167969 153.40625 166.050781 153.40625 C 166.929688 153.40625 167.804688 153.320312 168.667969 153.152344 C 169.535156 152.984375 170.375 152.734375 171.191406 152.402344 C 172.003906 152.070312 172.777344 151.664062 173.511719 151.183594 C 174.246094 150.703125 174.925781 150.15625 175.546875 149.542969 C 176.171875 148.933594 176.730469 148.265625 177.21875 147.546875 C 177.707031 146.828125 178.121094 146.066406 178.460938 145.265625 C 178.796875 144.46875 179.050781 143.644531 179.226562 142.792969 C 179.398438 141.945312 179.484375 141.089844 179.484375 140.222656 C 179.484375 139.355469 179.398438 138.5 179.226562 137.652344 C 179.050781 136.800781 178.796875 135.976562 178.460938 135.175781 C 178.121094 134.378906 177.707031 133.617188 177.21875 132.898438 C 176.730469 132.179688 176.171875 131.511719 175.546875 130.902344 C 174.925781 130.289062 174.246094 129.742188 173.511719 129.261719 C 172.777344 128.78125 172.003906 128.375 171.191406 128.042969 C 170.375 127.710938 169.535156 127.460938 168.667969 127.292969 C 167.804688 127.125 166.929688 127.039062 166.050781 127.039062 Z M 132.464844 127.039062 C 131.582031 127.039062 130.707031 127.125 129.84375 127.292969 C 128.976562 127.460938 128.136719 127.710938 127.324219 128.042969 C 126.507812 128.375 125.734375 128.78125 125 129.261719 C 124.265625 129.742188 123.589844 130.289062 122.964844 130.902344 C 122.339844 131.511719 121.785156 132.179688 121.292969 132.898438 C 120.804688 133.617188 120.390625 134.378906 120.054688 135.175781 C 119.714844 135.976562 119.460938 136.800781 119.289062 137.652344 C 119.117188 138.5 119.03125 139.355469 119.03125 140.222656 C 119.03125 141.089844 119.117188 141.945312 119.289062 142.792969 C 119.460938 143.644531 119.714844 144.46875 120.054688 145.265625 C 120.390625 146.066406 120.804688 146.828125 121.292969 147.546875 C 121.785156 148.265625 122.339844 148.933594 122.964844 149.542969 C 123.589844 150.15625 124.265625 150.703125 125 151.183594 C 125.734375 151.664062 126.507812 152.070312 127.324219 152.402344 C 128.136719 152.734375 128.976562 152.984375 129.84375 153.152344 C 130.707031 153.320312 131.582031 153.40625 132.464844 153.40625 C 133.347656 153.40625 134.21875 153.320312 135.085938 153.152344 C 135.949219 152.984375 136.789062 152.734375 137.605469 152.402344 C 138.421875 152.070312 139.195312 151.664062 139.929688 151.183594 C 140.660156 150.703125 141.339844 150.15625 141.964844 149.542969 C 142.585938 148.933594 143.144531 148.265625 143.632812 147.546875 C 144.125 146.828125 144.539062 146.066406 144.875 145.265625 C 145.214844 144.46875 145.46875 143.644531 145.640625 142.792969 C 145.8125 141.945312 145.898438 141.089844 145.898438 140.222656 C 145.898438 139.355469 145.8125 138.5 145.640625 137.652344 C 145.46875 136.800781 145.214844 135.976562 144.875 135.175781 C 144.539062 134.378906 144.125 133.617188 143.632812 132.898438 C 143.144531 132.179688 142.585938 131.511719 141.964844 130.902344 C 141.339844 130.289062 140.660156 129.742188 139.929688 129.261719 C 139.195312 128.78125 138.421875 128.375 137.605469 128.042969 C 136.789062 127.710938 135.949219 127.460938 135.085938 127.292969 C 134.21875 127.125 133.347656 127.039062 132.464844 127.039062 Z M 132.464844 127.039062 " fill-opacity="1" fill-rule="nonzero"/><path fill="#eeeeee" d="M 149.257812 173.179688 C 149.257812 175 150.761719 176.476562 152.613281 176.476562 C 154.46875 176.476562 155.972656 175 155.972656 173.179688 L 155.972656 163.292969 L 149.257812 163.292969 Z M 142.539062 173.179688 C 142.539062 175 144.042969 176.476562 145.898438 176.476562 C 147.753906 176.476562 149.257812 175 149.257812 173.179688 L 149.257812 163.292969 L 142.539062 163.292969 Z M 142.539062 173.179688 " fill-opacity="1" fill-rule="nonzero"/><path fill="#ffcc80" d="M 157.652344 166.589844 C 156.269531 166.589844 155.460938 166.308594 154.257812 165.914062 C 150.984375 164.832031 147.46875 164.839844 144.195312 165.917969 C 143.003906 166.3125 142.238281 166.589844 140.859375 166.589844 C 136.378906 166.589844 135.824219 163.292969 135.824219 161.644531 C 135.824219 156.703125 140.859375 153.40625 145.898438 153.40625 C 148.703125 153.40625 149.8125 153.40625 152.613281 153.40625 C 157.652344 153.40625 162.691406 156.703125 162.691406 161.644531 C 162.691406 163.292969 162.132812 166.589844 157.652344 166.589844 Z M 157.652344 166.589844 " fill-opacity="1" fill-rule="nonzero"/><path fill="#424242" d="M 159.332031 136.925781 C 158.886719 136.925781 158.457031 137.011719 158.046875 137.175781 C 157.636719 137.34375 157.273438 137.582031 156.957031 137.890625 C 156.640625 138.203125 156.398438 138.558594 156.230469 138.960938 C 156.058594 139.363281 155.972656 139.785156 155.972656 140.222656 C 155.972656 140.660156 156.058594 141.078125 156.230469 141.484375 C 156.398438 141.886719 156.640625 142.242188 156.957031 142.554688 C 157.273438 142.863281 157.636719 143.101562 158.046875 143.265625 C 158.457031 143.433594 158.886719 143.519531 159.332031 143.519531 C 159.777344 143.519531 160.207031 143.433594 160.617188 143.265625 C 161.027344 143.101562 161.390625 142.863281 161.707031 142.554688 C 162.023438 142.242188 162.265625 141.886719 162.433594 141.484375 C 162.605469 141.078125 162.691406 140.660156 162.691406 140.222656 C 162.691406 139.785156 162.605469 139.363281 162.433594 138.960938 C 162.265625 138.558594 162.023438 138.203125 161.707031 137.890625 C 161.390625 137.582031 161.027344 137.34375 160.617188 137.175781 C 160.207031 137.011719 159.777344 136.925781 159.332031 136.925781 Z M 125.746094 136.925781 C 125.300781 136.925781 124.875 137.011719 124.460938 137.175781 C 124.050781 137.34375 123.6875 137.582031 123.371094 137.890625 C 123.058594 138.203125 122.816406 138.558594 122.644531 138.960938 C 122.472656 139.363281 122.390625 139.785156 122.390625 140.222656 C 122.390625 140.660156 122.472656 141.078125 122.644531 141.484375 C 122.816406 141.886719 123.058594 142.242188 123.371094 142.554688 C 123.6875 142.863281 124.050781 143.101562 124.460938 143.265625 C 124.875 143.433594 125.300781 143.519531 125.746094 143.519531 C 126.191406 143.519531 126.621094 143.433594 127.03125 143.265625 C 127.445312 143.101562 127.808594 142.863281 128.121094 142.554688 C 128.4375 142.242188 128.679688 141.886719 128.851562 141.484375 C 129.019531 141.078125 129.105469 140.660156 129.105469 140.222656 C 129.105469 139.785156 129.019531 139.363281 128.851562 138.960938 C 128.679688 138.558594 128.4375 138.203125 128.121094 137.890625 C 127.808594 137.582031 127.445312 137.34375 127.03125 137.175781 C 126.621094 137.011719 126.191406 136.925781 125.746094 136.925781 Z M 149.257812 150.109375 C 148.816406 150.109375 148.378906 150.132812 147.945312 150.171875 C 147.511719 150.214844 147.09375 150.277344 146.6875 150.359375 C 146.277344 150.445312 145.890625 150.546875 145.523438 150.664062 C 145.15625 150.785156 144.820312 150.921875 144.507812 151.074219 C 144.195312 151.226562 143.917969 151.394531 143.671875 151.574219 C 143.425781 151.753906 143.21875 151.945312 143.050781 152.144531 C 142.882812 152.34375 142.753906 152.550781 142.667969 152.761719 C 142.582031 152.976562 142.539062 153.1875 142.539062 153.40625 C 142.539062 153.621094 142.582031 153.835938 142.667969 154.046875 C 142.753906 154.261719 142.882812 154.464844 143.050781 154.667969 C 143.21875 154.867188 143.425781 155.054688 143.671875 155.238281 C 143.917969 155.417969 144.195312 155.582031 144.507812 155.734375 C 144.820312 155.890625 145.15625 156.027344 145.523438 156.144531 C 145.890625 156.265625 146.277344 156.367188 146.6875 156.449219 C 147.09375 156.53125 147.511719 156.59375 147.945312 156.636719 C 148.378906 156.679688 148.816406 156.703125 149.257812 156.703125 C 149.699219 156.703125 150.132812 156.679688 150.566406 156.636719 C 151 156.59375 151.417969 156.53125 151.828125 156.449219 C 152.234375 156.367188 152.621094 156.265625 152.988281 156.144531 C 153.355469 156.027344 153.695312 155.890625 154.007812 155.734375 C 154.316406 155.582031 154.597656 155.417969 154.839844 155.238281 C 155.085938 155.054688 155.292969 154.867188 155.460938 154.667969 C 155.632812 154.464844 155.757812 154.261719 155.84375 154.046875 C 155.929688 153.835938 155.972656 153.621094 155.972656 153.40625 C 155.972656 153.1875 155.929688 152.976562 155.84375 152.761719 C 155.757812 152.550781 155.632812 152.34375 155.460938 152.144531 C 155.292969 151.945312 155.085938 151.753906 154.839844 151.574219 C 154.597656 151.394531 154.316406 151.226562 154.007812 151.074219 C 153.695312 150.921875 153.355469 150.785156 152.988281 150.664062 C 152.621094 150.546875 152.234375 150.445312 151.828125 150.359375 C 151.417969 150.277344 151 150.214844 150.566406 150.171875 C 150.132812 150.132812 149.699219 150.109375 149.257812 150.109375 Z M 149.257812 150.109375 " fill-opacity="1" fill-rule="nonzero"/><g fill="#000000" fill-opacity="1"><g transform="translate(4.72764, 212.940393)"><g><path d="M 24.671875 -28.359375 L 45.578125 -28.359375 L 45.578125 -2.25 C 39.898438 -0.3125 33.660156 0.65625 26.859375 0.65625 C 19.398438 0.65625 13.628906 -1.503906 9.546875 -5.828125 C 5.472656 -10.160156 3.4375 -16.332031 3.4375 -24.34375 C 3.4375 -32.164062 5.664062 -38.25 10.125 -42.59375 C 14.59375 -46.945312 20.847656 -49.125 28.890625 -49.125 C 31.929688 -49.125 34.804688 -48.835938 37.515625 -48.265625 C 40.222656 -47.691406 42.582031 -46.960938 44.59375 -46.078125 L 40.453125 -35.8125 C 36.960938 -37.53125 33.128906 -38.390625 28.953125 -38.390625 C 25.128906 -38.390625 22.175781 -37.144531 20.09375 -34.65625 C 18.007812 -32.175781 16.96875 -28.628906 16.96875 -24.015625 C 16.96875 -19.484375 17.910156 -16.03125 19.796875 -13.65625 C 21.679688 -11.289062 24.398438 -10.109375 27.953125 -10.109375 C 29.898438 -10.109375 31.691406 -10.296875 33.328125 -10.671875 L 33.328125 -18.25 L 24.671875 -18.25 Z M 24.671875 -28.359375 "/></g></g><g transform="translate(54.945948, 212.940393)"><g><path d="M 40.3125 -18.84375 C 40.3125 -12.707031 38.660156 -7.921875 35.359375 -4.484375 C 32.054688 -1.054688 27.4375 0.65625 21.5 0.65625 C 15.800781 0.65625 11.265625 -1.097656 7.890625 -4.609375 C 4.523438 -8.117188 2.84375 -12.863281 2.84375 -18.84375 C 2.84375 -24.96875 4.492188 -29.722656 7.796875 -33.109375 C 11.097656 -36.492188 15.734375 -38.1875 21.703125 -38.1875 C 25.390625 -38.1875 28.644531 -37.398438 31.46875 -35.828125 C 34.289062 -34.265625 36.46875 -32.019531 38 -29.09375 C 39.539062 -26.175781 40.3125 -22.757812 40.3125 -18.84375 Z M 16 -18.84375 C 16 -15.625 16.425781 -13.164062 17.28125 -11.46875 C 18.144531 -9.78125 19.59375 -8.9375 21.625 -8.9375 C 23.632812 -8.9375 25.050781 -9.78125 25.875 -11.46875 C 26.707031 -13.164062 27.125 -15.625 27.125 -18.84375 C 27.125 -22.050781 26.703125 -24.472656 25.859375 -26.109375 C 25.023438 -27.742188 23.59375 -28.5625 21.5625 -28.5625 C 19.570312 -28.5625 18.144531 -27.75 17.28125 -26.125 C 16.425781 -24.5 16 -22.070312 16 -18.84375 Z M 16 -18.84375 "/></g></g></g><g fill="#000000" fill-opacity="1"><g transform="translate(207.084484, 212.940393)"><g><path d="M 34.953125 0 L 32.5625 -9.078125 L 16.828125 -9.078125 L 14.375 0 L 0 0 L 15.796875 -48.625 L 33.265625 -48.625 L 49.265625 0 Z M 29.84375 -19.8125 L 27.765625 -27.765625 C 27.273438 -29.523438 26.679688 -31.804688 25.984375 -34.609375 C 25.285156 -37.421875 24.828125 -39.429688 24.609375 -40.640625 C 24.410156 -39.515625 24.019531 -37.660156 23.4375 -35.078125 C 22.851562 -32.492188 21.554688 -27.40625 19.546875 -19.8125 Z M 29.84375 -19.8125 "/></g></g><g transform="translate(256.342151, 212.940393)"><g><path d="M 17.421875 0 L 4.46875 0 L 4.46875 -51.546875 L 17.421875 -51.546875 Z M 17.421875 0 "/></g></g><g transform="translate(278.271254, 212.940393)"><g><path d="M 39.890625 -37.53125 L 39.890625 -31.265625 L 34.75 -29.390625 C 35.457031 -28.109375 35.8125 -26.613281 35.8125 -24.90625 C 35.8125 -20.863281 34.390625 -17.726562 31.546875 -15.5 C 28.710938 -13.269531 24.476562 -12.15625 18.84375 -12.15625 C 17.457031 -12.15625 16.351562 -12.242188 15.53125 -12.421875 C 15.226562 -11.847656 15.078125 -11.304688 15.078125 -10.796875 C 15.078125 -10.160156 15.59375 -9.671875 16.625 -9.328125 C 17.664062 -8.984375 19.023438 -8.8125 20.703125 -8.8125 L 26.9375 -8.8125 C 35.34375 -8.8125 39.546875 -5.265625 39.546875 1.828125 C 39.546875 6.390625 37.597656 9.941406 33.703125 12.484375 C 29.804688 15.023438 24.335938 16.296875 17.296875 16.296875 C 11.972656 16.296875 7.867188 15.40625 4.984375 13.625 C 2.097656 11.851562 0.65625 9.300781 0.65625 5.96875 C 0.65625 1.476562 3.441406 -1.414062 9.015625 -2.71875 C 7.859375 -3.195312 6.851562 -3.976562 6 -5.0625 C 5.15625 -6.144531 4.734375 -7.21875 4.734375 -8.28125 C 4.734375 -9.445312 5.050781 -10.476562 5.6875 -11.375 C 6.332031 -12.269531 7.671875 -13.335938 9.703125 -14.578125 C 7.765625 -15.441406 6.234375 -16.785156 5.109375 -18.609375 C 3.992188 -20.441406 3.4375 -22.675781 3.4375 -25.3125 C 3.4375 -29.394531 4.828125 -32.5625 7.609375 -34.8125 C 10.398438 -37.0625 14.378906 -38.1875 19.546875 -38.1875 C 20.234375 -38.1875 21.414062 -38.109375 23.09375 -37.953125 C 24.769531 -37.804688 26.003906 -37.664062 26.796875 -37.53125 Z M 11.59375 4.671875 C 11.59375 5.734375 12.164062 6.585938 13.3125 7.234375 C 14.46875 7.890625 16.003906 8.21875 17.921875 8.21875 C 21.054688 8.21875 23.566406 7.820312 25.453125 7.03125 C 27.347656 6.25 28.296875 5.242188 28.296875 4.015625 C 28.296875 3.015625 27.71875 2.3125 26.5625 1.90625 C 25.414062 1.5 23.769531 1.296875 21.625 1.296875 L 16.5625 1.296875 C 15.164062 1.296875 13.988281 1.617188 13.03125 2.265625 C 12.070312 2.921875 11.59375 3.722656 11.59375 4.671875 Z M 15.671875 -25.25 C 15.671875 -21.40625 17.003906 -19.484375 19.671875 -19.484375 C 20.910156 -19.484375 21.863281 -19.957031 22.53125 -20.90625 C 23.207031 -21.851562 23.546875 -23.273438 23.546875 -25.171875 C 23.546875 -29.054688 22.253906 -31 19.671875 -31 C 17.003906 -31 15.671875 -29.082031 15.671875 -25.25 Z M 15.671875 -25.25 "/></g></g><g transform="translate(319.38004, 212.940393)"><g><path d="M 40.3125 -18.84375 C 40.3125 -12.707031 38.660156 -7.921875 35.359375 -4.484375 C 32.054688 -1.054688 27.4375 0.65625 21.5 0.65625 C 15.800781 0.65625 11.265625 -1.097656 7.890625 -4.609375 C 4.523438 -8.117188 2.84375 -12.863281 2.84375 -18.84375 C 2.84375 -24.96875 4.492188 -29.722656 7.796875 -33.109375 C 11.097656 -36.492188 15.734375 -38.1875 21.703125 -38.1875 C 25.390625 -38.1875 28.644531 -37.398438 31.46875 -35.828125 C 34.289062 -34.265625 36.46875 -32.019531 38 -29.09375 C 39.539062 -26.175781 40.3125 -22.757812 40.3125 -18.84375 Z M 16 -18.84375 C 16 -15.625 16.425781 -13.164062 17.28125 -11.46875 C 18.144531 -9.78125 19.59375 -8.9375 21.625 -8.9375 C 23.632812 -8.9375 25.050781 -9.78125 25.875 -11.46875 C 26.707031 -13.164062 27.125 -15.625 27.125 -18.84375 C 27.125 -22.050781 26.703125 -24.472656 25.859375 -26.109375 C 25.023438 -27.742188 23.59375 -28.5625 21.5625 -28.5625 C 19.570312 -28.5625 18.144531 -27.75 17.28125 -26.125 C 16.425781 -24.5 16 -22.070312 16 -18.84375 Z M 16 -18.84375 "/></g></g></g></svg>